<?xml version="1.0" encoding="iso-8859-1"?>
<!-- Generator: Adobe Illustrator 19.0.0, SVG Export Plug-In . SVG Version: 6.00 Build 0)  -->
<svg version="1.1" id="Capa_1" xmlns="http://www.w3.org/2000/svg" xmlns:xlink="http://www.w3.org/1999/xlink" x="0px" y="0px"
	 viewBox="0 0 512 512" style="enable-background:new 0 0 512 512;" xml:space="preserve">
<g>
	<path style="fill:#4DBAEE;" d="M509.299,338.899l-7.2,26.7L407,429.2l-0.601,0.3L319.4,373.7l-14.7-34.801
		c1.5-1.5,2.399-3.3,3.898-4.501l90-60c2.1-1.8,5.402-2.399,8.401-2.399s6.301,0.599,8.401,2.399l90,60
		C506.901,335.6,507.8,337.4,509.299,338.899z"/>
	<path style="fill:#4DBAEE;" d="M358.299,66.899l-7.2,26.7L256,157.2l-0.601,0.3L168.4,101.7l-14.7-34.801
		c1.5-1.5,2.399-3.3,3.898-4.501l90-60C249.699,0.599,253.001,0,256,0s6.301,0.599,8.401,2.399l90,60
		C355.901,63.6,356.8,65.4,358.299,66.899z"/>
	<path style="fill:#4DBAEE;" d="M207.299,338.899l-7.2,26.7L105,429.2l-0.601,0.3L17.4,373.7L2.7,338.899
		c1.5-1.5,2.399-3.3,3.898-4.501l90-60c2.1-1.8,5.402-2.399,8.401-2.399s6.301,0.599,8.401,2.399l90,60
		C204.901,335.6,205.8,337.4,207.299,338.899z"/>
</g>
<path style="fill:#57555C;" d="M444.401,193.9L271,309.399V436c0,8.399-6.599,15-15,15s-15-6.601-15-15V309.399L67.599,193.9
	c-6.899-4.801-8.699-14.101-4.199-21c4.799-6.899,14.099-8.699,21-4.2L256,283.299l171.599-114.6c6.901-4.499,16.201-2.699,21,4.2
	C453.1,179.799,451.3,189.099,444.401,193.9z"/>
<g>
	<path style="fill:#1BA9EF;" d="M210,347v90c0,5.099-2.401,9.6-6.599,12.599l-90,60H112.5c0,0.3-0.3,0.601-0.3,0.601
		c-2.401,1.199-4.799,1.8-7.2,1.8s-4.799-0.601-7.2-1.8c0,0-0.3-0.3-0.3-0.601h-0.901l-90-60C2.401,446.6,0,442.099,0,437v-90
		c0-2.701,0.901-6.301,2.701-8.101L105,407l102.299-68.101C209.099,340.699,210,344.299,210,347z"/>
	<path style="fill:#1BA9EF;" d="M207.299,338.899l-7.2,26.7L105,429.2V272c2.999,0,6.301,0.599,8.401,2.399l90,60
		C204.901,335.6,205.8,337.4,207.299,338.899z"/>
</g>
<path style="fill:#1689FC;" d="M210,347v90c0,5.099-2.401,9.6-6.599,12.599l-90,60H112.5c0,0.3-0.3,0.601-0.3,0.601
	c-2.401,1.199-4.799,1.8-7.2,1.8V407l102.299-68.101C209.099,340.699,210,344.299,210,347z"/>
<g>
	<path style="fill:#1BA9EF;" d="M512,347v90c0,5.099-2.401,9.6-6.599,12.599l-90,60H414.5c0,0.3-0.3,0.601-0.3,0.601
		c-2.401,1.199-4.799,1.8-7.2,1.8s-4.799-0.601-7.2-1.8c0,0-0.3-0.3-0.3-0.601h-0.901l-90-60C304.401,446.6,302,442.099,302,437v-90
		c0-2.701,0.901-6.301,2.701-8.101L407,407l102.299-68.101C511.099,340.699,512,344.299,512,347z"/>
	<path style="fill:#1BA9EF;" d="M509.299,338.899l-7.2,26.7L407,429.2V272c2.999,0,6.301,0.599,8.401,2.399l90,60
		C506.901,335.6,507.8,337.4,509.299,338.899z"/>
</g>
<path style="fill:#1689FC;" d="M512,347v90c0,5.099-2.401,9.6-6.599,12.599l-90,60H414.5c0,0.3-0.3,0.601-0.3,0.601
	c-2.401,1.199-4.799,1.8-7.2,1.8V407l102.299-68.101C511.099,340.699,512,344.299,512,347z"/>
<g>
	<path style="fill:#1BA9EF;" d="M361,75v90c0,5.099-2.401,9.6-6.599,12.599l-90,60H263.5c0,0.3-0.3,0.601-0.3,0.601
		c-2.401,1.199-4.799,1.8-7.2,1.8s-4.799-0.601-7.2-1.8c0,0-0.3-0.3-0.3-0.601h-0.901l-90-60C153.401,174.6,151,170.099,151,165V75
		c0-2.701,0.901-6.301,2.701-8.101L256,135l102.299-68.101C360.099,68.699,361,72.299,361,75z"/>
	<path style="fill:#1BA9EF;" d="M358.299,66.899l-7.2,26.7L256,157.2V0c2.999,0,6.301,0.599,8.401,2.399l90,60
		C355.901,63.6,356.8,65.4,358.299,66.899z"/>
</g>
<path style="fill:#1689FC;" d="M361,75v90c0,5.099-2.401,9.6-6.599,12.599l-90,60H263.5c0,0.3-0.3,0.601-0.3,0.601
	c-2.401,1.199-4.799,1.8-7.2,1.8V135l102.299-68.101C360.099,68.699,361,72.299,361,75z"/>
<path style="fill:#3C3A41;" d="M444.401,193.9L271,309.399V436c0,8.399-6.599,15-15,15V283.299l171.599-114.6
	c6.901-4.499,16.201-2.699,21,4.2C453.1,179.799,451.3,189.099,444.401,193.9z"/>
<g>
</g>
<g>
</g>
<g>
</g>
<g>
</g>
<g>
</g>
<g>
</g>
<g>
</g>
<g>
</g>
<g>
</g>
<g>
</g>
<g>
</g>
<g>
</g>
<g>
</g>
<g>
</g>
<g>
</g>
</svg>
